<?xml version="1.0" encoding="UTF-8"?><svg xmlns="http://www.w3.org/2000/svg" viewBox="0 0 554.91 520.28"><defs><style>.cls-1{fill:none;}.cls-1,.cls-2{stroke:#000;stroke-miterlimit:10;stroke-width:2px;}.cls-2{fill:#fff;}</style></defs><g id="Layer_1"><path class="cls-2" d="M136.16,177.33l-10.84,308.06s342.26,58.54,342.26-87.22c0-53-39.75-75.09-39.75-75.09,0,0,49.89-53,35.33-119.26-14.93-67.97-327-26.5-327-26.5Z"/><path class="cls-2" d="M199.67,365.73v76.61s182.42,28.55,205.91-45.36c23.48-73.91-205.91-31.25-205.91-31.25Z"/></g><g id="Layer_3"><path class="cls-2" d="M407.27,253.24c-.22,67.67-148.67,55.7-188.56,51.28-1.86-.22-3.45-.4-4.81-.57l-1.5-1.63-74.56-81.8v155.08H32.54L42.08,16.1c152.78-19.21,283.12-.75,284.18,69.26,1.5,100.31-86.84,104.72-86.84,104.72l24.03,24.03c.04-.22,2.78,2.21,2.92,1.95,58.3-7.64,141.03-16.78,140.9,37.19Z"/><path class="cls-2" d="M149.68,57.39v81.64s92.75,19.95,101.59-33.06c11.11-66.65-101.59-48.59-101.59-48.59Z"/></g><g id="Layer_2"><path d="M12.76,406.32S282.19,220.82,357.27,88.31c0,0,36.23,85.31,97.62,84.61,0,0-278.71,162.73-367.05,308.49,0,0-79.5-4.42-75.09-75.09Z"/><path d="M362.94,81.16s64.35-34.24,98.96-27.35c0,0,1.99,12.83,22.41,16.68,0,0,5.61,57.62-27.69,99.63,0,0-66.4-8.13-93.68-88.96Z"/><path d="M467.08,52.89s-.08,12.05,18.28,13.33c0,0,17.67-17.67,13.25-22.08,0,0-14.48-13.42-31.53,8.75Z"/></g><g id="Layer_5"><line class="cls-1" x1="144.21" y1="488.3" x2="144.19" y2="488.3"/></g></svg>